<?xml version="1.0" standalone="no"?>
<!DOCTYPE svg PUBLIC "-//W3C//DTD SVG 20010904//EN"
 "http://www.w3.org/TR/2001/REC-SVG-20010904/DTD/svg10.dtd">
<svg version="1.0" xmlns="http://www.w3.org/2000/svg"
 width="512.000000pt" height="512.000000pt" viewBox="0 0 512.000000 512.000000"
 preserveAspectRatio="xMidYMid meet">
<metadata>
Created by potrace 1.11, written by Peter Selinger 2001-2013
</metadata>
<g transform="translate(0.000000,512.000000) scale(0.100000,-0.100000)"
fill="#000000" stroke="none">
<path d="M383 5105 c-182 -49 -320 -189 -368 -372 -23 -86 -23 -4260 0 -4346
48 -185 187 -324 372 -372 86 -23 4260 -23 4346 0 185 48 324 187 372 372 23
86 23 4260 0 4346 -48 185 -187 324 -372 372 -84 22 -4269 21 -4350 0z m4282
-196 c75 -14 120 -37 166 -86 47 -49 65 -84 78 -158 15 -83 15 -4127 0 -4210
-13 -74 -31 -109 -78 -158 -46 -49 -91 -72 -166 -86 -83 -15 -4127 -15 -4210
0 -74 13 -109 31 -158 78 -49 46 -72 91 -86 166 -15 83 -15 4127 0 4210 13 74
31 109 78 158 45 48 81 68 151 83 75 17 4136 20 4225 3z"/>
<path d="M1289 4661 c-23 -23 -29 -38 -29 -71 0 -33 6 -48 29 -71 l29 -29
1042 0 1042 0 29 29 c23 23 29 38 29 71 0 33 -6 48 -29 71 l-29 29 -1042 0
-1042 0 -29 -29z"/>
<path d="M3689 4661 c-23 -23 -29 -38 -29 -71 0 -33 6 -48 29 -71 65 -64 171
-20 171 71 0 33 -6 48 -29 71 -23 23 -38 29 -71 29 -33 0 -48 -6 -71 -29z"/>
<path d="M2285 4040 c-359 -63 -646 -208 -904 -455 -338 -323 -521 -754 -521
-1225 0 -469 179 -893 511 -1216 112 -108 188 -167 317 -245 391 -239 898
-304 1347 -174 575 167 1028 634 1174 1212 69 271 69 575 0 845 -107 422 -382
795 -761 1030 -188 116 -403 195 -640 232 -133 22 -391 20 -523 -4z m423 -190
c363 -38 670 -187 923 -447 250 -256 383 -545 420 -911 54 -527 -209 -1076
-658 -1375 -88 -59 -252 -144 -310 -161 l-21 -7 -4 268 c-4 248 -5 272 -26
323 -12 30 -22 58 -22 61 0 3 19 11 43 18 201 60 390 197 493 359 45 70 91
184 110 270 20 98 18 269 -6 377 -19 85 -77 225 -119 283 -17 24 -18 42 -13
172 7 215 -25 314 -119 363 -70 37 -228 -2 -393 -99 l-79 -46 -101 18 c-139
26 -393 26 -532 0 l-101 -18 -79 46 c-165 97 -323 136 -393 99 -94 -49 -126
-148 -119 -363 5 -130 4 -148 -13 -172 -42 -58 -100 -198 -119 -283 -24 -108
-26 -279 -6 -377 63 -295 275 -521 586 -623 30 -10 57 -19 59 -21 2 -1 -6 -31
-18 -66 -11 -35 -23 -75 -26 -89 -6 -31 -27 -39 -103 -39 -92 0 -128 27 -237
181 -16 23 -53 59 -82 81 -158 120 -354 98 -329 -38 9 -44 46 -72 107 -80 66
-9 115 -46 182 -136 68 -92 125 -143 196 -177 49 -23 69 -26 158 -26 l103 0 0
-133 0 -133 -22 6 c-13 4 -66 27 -118 51 -254 120 -492 334 -641 579 -315 517
-283 1183 79 1670 64 86 205 227 292 294 305 233 683 340 1058 301z m-768
-645 c36 -18 96 -51 135 -74 82 -48 98 -49 238 -19 78 16 136 21 247 21 111 0
169 -5 247 -21 140 -30 156 -29 238 19 102 59 195 106 231 113 29 7 32 5 38
-25 10 -50 6 -169 -8 -234 -16 -74 -10 -96 50 -186 56 -84 82 -149 100 -249
26 -146 9 -281 -52 -405 -91 -187 -262 -303 -529 -360 -97 -21 -111 -28 -130
-65 -24 -46 -18 -73 31 -145 79 -116 78 -108 82 -411 l4 -271 -89 -12 c-113
-16 -313 -16 -426 0 l-89 12 4 271 c4 303 3 295 82 411 49 72 55 99 31 145
-19 37 -32 44 -130 65 -266 57 -438 174 -529 360 -99 200 -82 457 41 641 67
101 73 122 57 208 -15 76 -18 173 -8 225 6 30 9 32 38 25 17 -3 60 -21 96 -39z"/>
</g>
</svg>
